<svg xmlns="http://www.w3.org/2000/svg" viewBox="0 0 64 64">
  <defs>
    <linearGradient id="bg" x1="0" y1="0" x2="1" y2="1">
      <stop offset="0%" stop-color="#ff7eb3"/>
      <stop offset="55%" stop-color="#a78bfa"/>
      <stop offset="100%" stop-color="#64b5f6"/>
    </linearGradient>
  </defs>
  <rect width="64" height="64" rx="14" fill="url(#bg)"/>
  <path d="M12 17c8.5 0 16.5-4 20-4v35c-3.5 0-11.5 4-20 4V17z" fill="#fff" opacity=".96"/>
  <path d="M52 17c-8.5 0-16.5-4-20-4v35c3.5 0 11.5 4 20 4V17z" fill="#fff" opacity=".88"/>
  <path d="M32 13v35" stroke="#ff7eb3" stroke-width="2.2" stroke-linecap="round"/>
  <circle cx="48" cy="14" r="5.5" fill="#ffd54f"/>
  <path d="M48 10.2l1.1 2.3 2.5.4-1.8 1.8.4 2.5-2.2-1.2-2.2 1.2.4-2.5-1.8-1.8 2.5-.4z" fill="#fff8e1"/>
</svg>
